<?xml version="1.0" encoding="UTF-8" standalone="no"?>
<svg
   xmlns:osb="http://www.openswatchbook.org/uri/2009/osb"
   xmlns:dc="http://purl.org/dc/elements/1.1/"
   xmlns:cc="http://creativecommons.org/ns#"
   xmlns:rdf="http://www.w3.org/1999/02/22-rdf-syntax-ns#"
   xmlns:svg="http://www.w3.org/2000/svg"
   xmlns="http://www.w3.org/2000/svg"
   xmlns:sodipodi="http://sodipodi.sourceforge.net/DTD/sodipodi-0.dtd"
   xmlns:inkscape="http://www.inkscape.org/namespaces/inkscape"
   width="99.232948mm"
   height="99.232948mm"
   viewBox="0 0 99.232948 99.23295"
   version="1.1"
   id="svg8"
   inkscape:version="1.0.1 (3bc2e813f5, 2020-09-07)"
   sodipodi:docname="Ring.svg">
  <defs
     id="defs2">
    <rect
       x="137.37654"
       y="49.177593"
       width="15.234363"
       height="12.294398"
       id="rect3269" />
    <rect
       x="117.06405"
       y="45.703091"
       width="15.768902"
       height="13.096207"
       id="rect3263" />
    <linearGradient
       id="linearGradient1085"
       osb:paint="solid">
      <stop
         style="stop-color:#000000;stop-opacity:1;"
         offset="0"
         id="stop1083" />
    </linearGradient>
    <rect
       x="137.37654"
       y="49.177593"
       width="15.234363"
       height="12.294398"
       id="rect3269-3" />
    <rect
       x="137.37654"
       y="49.177593"
       width="15.234363"
       height="12.294398"
       id="rect3282" />
    <rect
       x="117.06405"
       y="45.703091"
       width="15.768902"
       height="13.096207"
       id="rect3263-3" />
    <rect
       x="117.06405"
       y="45.703091"
       width="15.768902"
       height="13.096207"
       id="rect1164" />
    <rect
       x="117.06405"
       y="45.703091"
       width="15.768902"
       height="13.096207"
       id="rect1166" />
    <rect
       x="117.06405"
       y="45.703091"
       width="15.768902"
       height="13.096207"
       id="rect1168" />
    <rect
       x="117.06405"
       y="45.703091"
       width="15.768902"
       height="13.096207"
       id="rect1170" />
    <rect
       x="117.06405"
       y="45.703091"
       width="15.768902"
       height="13.096207"
       id="rect1172" />
    <rect
       x="117.06405"
       y="45.703091"
       width="15.768902"
       height="13.096207"
       id="rect1174" />
    <rect
       x="117.06405"
       y="45.703091"
       width="15.768902"
       height="13.096207"
       id="rect1176" />
    <rect
       x="117.06405"
       y="45.703091"
       width="15.768902"
       height="13.096207"
       id="rect1178" />
    <rect
       x="117.06405"
       y="45.703091"
       width="15.768902"
       height="13.096207"
       id="rect1180" />
    <rect
       x="117.06405"
       y="45.703091"
       width="15.768902"
       height="13.096207"
       id="rect1182" />
    <rect
       x="117.06405"
       y="45.703091"
       width="15.768902"
       height="13.096207"
       id="rect1184" />
    <rect
       x="117.06405"
       y="45.703091"
       width="15.768902"
       height="13.096207"
       id="rect1186" />
    <rect
       x="117.06405"
       y="45.703091"
       width="15.768902"
       height="13.096207"
       id="rect1188" />
    <rect
       x="117.06405"
       y="45.703091"
       width="15.768902"
       height="13.096207"
       id="rect1190" />
    <rect
       x="117.06405"
       y="45.703091"
       width="15.768902"
       height="13.096207"
       id="rect1192" />
    <rect
       x="117.06405"
       y="45.703091"
       width="15.768902"
       height="13.096207"
       id="rect1194" />
    <rect
       x="117.06405"
       y="45.703091"
       width="15.768902"
       height="13.096207"
       id="rect1196" />
    <rect
       x="117.06405"
       y="45.703091"
       width="15.768902"
       height="13.096207"
       id="rect1198" />
    <rect
       x="117.06405"
       y="45.703091"
       width="15.768902"
       height="13.096207"
       id="rect1200" />
    <rect
       x="117.06405"
       y="45.703091"
       width="15.768902"
       height="13.096207"
       id="rect1202" />
    <rect
       x="117.06405"
       y="45.703091"
       width="15.768902"
       height="13.096207"
       id="rect1204" />
    <rect
       x="117.06405"
       y="45.703091"
       width="15.768902"
       height="13.096207"
       id="rect1206" />
    <rect
       x="117.06405"
       y="45.703091"
       width="15.768902"
       height="13.096207"
       id="rect1208" />
    <rect
       x="117.06405"
       y="45.703091"
       width="15.768902"
       height="13.096207"
       id="rect1210" />
    <rect
       x="117.06405"
       y="45.703091"
       width="15.768902"
       height="13.096207"
       id="rect1212" />
    <rect
       x="117.06405"
       y="45.703091"
       width="15.768902"
       height="13.096207"
       id="rect1214" />
    <rect
       x="117.06405"
       y="45.703091"
       width="15.768902"
       height="13.096207"
       id="rect1216" />
    <rect
       x="117.06405"
       y="45.703091"
       width="15.768902"
       height="13.096207"
       id="rect1218" />
    <rect
       x="117.06405"
       y="45.703091"
       width="15.768902"
       height="13.096207"
       id="rect1220" />
    <rect
       x="117.06405"
       y="45.703091"
       width="15.768902"
       height="13.096207"
       id="rect1222" />
    <rect
       x="117.06405"
       y="45.703091"
       width="15.768902"
       height="13.096207"
       id="rect1224" />
    <rect
       x="117.06405"
       y="45.703091"
       width="15.768902"
       height="13.096207"
       id="rect1226" />
    <rect
       x="117.06405"
       y="45.703091"
       width="15.768902"
       height="13.096207"
       id="rect1228" />
    <rect
       x="117.06405"
       y="45.703091"
       width="15.768902"
       height="13.096207"
       id="rect1230" />
    <rect
       x="117.06405"
       y="45.703091"
       width="15.768902"
       height="13.096207"
       id="rect1232" />
    <rect
       x="117.06405"
       y="45.703091"
       width="15.768902"
       height="13.096207"
       id="rect1234" />
    <rect
       x="117.06405"
       y="45.703091"
       width="15.768902"
       height="13.096207"
       id="rect1236" />
    <rect
       x="117.06405"
       y="45.703091"
       width="15.768902"
       height="13.096207"
       id="rect1238" />
    <rect
       x="117.06405"
       y="45.703091"
       width="15.768902"
       height="13.096207"
       id="rect1240" />
    <rect
       x="117.06405"
       y="45.703091"
       width="15.768902"
       height="13.096207"
       id="rect1242" />
    <rect
       x="117.06405"
       y="45.703091"
       width="15.768902"
       height="13.096207"
       id="rect1244" />
    <rect
       x="117.06405"
       y="45.703091"
       width="15.768902"
       height="13.096207"
       id="rect1246" />
    <rect
       x="117.06405"
       y="45.703091"
       width="15.768902"
       height="13.096207"
       id="rect1248" />
    <rect
       x="117.06405"
       y="45.703091"
       width="15.768902"
       height="13.096207"
       id="rect1250" />
    <rect
       x="117.06405"
       y="45.703091"
       width="15.768902"
       height="13.096207"
       id="rect1252" />
    <rect
       x="117.06405"
       y="45.703091"
       width="15.768902"
       height="13.096207"
       id="rect1254" />
    <rect
       x="117.06405"
       y="45.703091"
       width="15.768902"
       height="13.096207"
       id="rect1256" />
    <rect
       x="117.06405"
       y="45.703091"
       width="15.768902"
       height="13.096207"
       id="rect1258" />
    <rect
       x="117.06405"
       y="45.703091"
       width="15.768902"
       height="13.096207"
       id="rect1260" />
    <rect
       x="117.06405"
       y="45.703091"
       width="15.768902"
       height="13.096207"
       id="rect1262" />
    <rect
       x="117.06405"
       y="45.703091"
       width="15.768902"
       height="13.096207"
       id="rect1264" />
    <rect
       x="117.06405"
       y="45.703091"
       width="15.768902"
       height="13.096207"
       id="rect3263-3-5" />
    <rect
       x="117.06405"
       y="45.703091"
       width="15.768902"
       height="13.096207"
       id="rect1763" />
    <rect
       x="117.06405"
       y="45.703091"
       width="15.768902"
       height="13.096207"
       id="rect1765" />
    <rect
       x="117.06405"
       y="45.703091"
       width="15.768902"
       height="13.096207"
       id="rect1767" />
    <rect
       x="117.06405"
       y="45.703091"
       width="15.768902"
       height="13.096207"
       id="rect1769" />
    <rect
       x="117.06405"
       y="45.703091"
       width="15.768902"
       height="13.096207"
       id="rect1771" />
    <rect
       x="117.06405"
       y="45.703091"
       width="15.768902"
       height="13.096207"
       id="rect1773" />
    <rect
       x="117.06405"
       y="45.703091"
       width="15.768902"
       height="13.096207"
       id="rect1775" />
    <rect
       x="117.06405"
       y="45.703091"
       width="15.768902"
       height="13.096207"
       id="rect1777" />
    <rect
       x="117.06405"
       y="45.703091"
       width="15.768902"
       height="13.096207"
       id="rect1779" />
    <rect
       x="117.06405"
       y="45.703091"
       width="15.768902"
       height="13.096207"
       id="rect1781" />
    <rect
       x="117.06405"
       y="45.703091"
       width="15.768902"
       height="13.096207"
       id="rect1783" />
    <rect
       x="117.06405"
       y="45.703091"
       width="15.768902"
       height="13.096207"
       id="rect1785" />
    <rect
       x="117.06405"
       y="45.703091"
       width="15.768902"
       height="13.096207"
       id="rect1787" />
    <rect
       x="117.06405"
       y="45.703091"
       width="15.768902"
       height="13.096207"
       id="rect1789" />
    <rect
       x="117.06405"
       y="45.703091"
       width="15.768902"
       height="13.096207"
       id="rect1791" />
    <rect
       x="117.06405"
       y="45.703091"
       width="15.768902"
       height="13.096207"
       id="rect1793" />
    <rect
       x="117.06405"
       y="45.703091"
       width="15.768902"
       height="13.096207"
       id="rect1795" />
    <rect
       x="117.06405"
       y="45.703091"
       width="15.768902"
       height="13.096207"
       id="rect1797" />
    <rect
       x="117.06405"
       y="45.703091"
       width="15.768902"
       height="13.096207"
       id="rect1799" />
    <rect
       x="117.06405"
       y="45.703091"
       width="15.768902"
       height="13.096207"
       id="rect1801" />
    <rect
       x="117.06405"
       y="45.703091"
       width="15.768902"
       height="13.096207"
       id="rect1803" />
    <rect
       x="117.06405"
       y="45.703091"
       width="15.768902"
       height="13.096207"
       id="rect1805" />
    <rect
       x="117.06405"
       y="45.703091"
       width="15.768902"
       height="13.096207"
       id="rect1807" />
    <rect
       x="117.06405"
       y="45.703091"
       width="15.768902"
       height="13.096207"
       id="rect1809" />
    <rect
       x="117.06405"
       y="45.703091"
       width="15.768902"
       height="13.096207"
       id="rect1811" />
    <rect
       x="117.06405"
       y="45.703091"
       width="15.768902"
       height="13.096207"
       id="rect1813" />
    <rect
       x="117.06405"
       y="45.703091"
       width="15.768902"
       height="13.096207"
       id="rect1815" />
    <rect
       x="117.06405"
       y="45.703091"
       width="15.768902"
       height="13.096207"
       id="rect1817" />
    <rect
       x="117.06405"
       y="45.703091"
       width="15.768902"
       height="13.096207"
       id="rect1819" />
    <rect
       x="117.06405"
       y="45.703091"
       width="15.768902"
       height="13.096207"
       id="rect1821" />
    <rect
       x="117.06405"
       y="45.703091"
       width="15.768902"
       height="13.096207"
       id="rect1823" />
    <rect
       x="117.06405"
       y="45.703091"
       width="15.768902"
       height="13.096207"
       id="rect1825" />
    <rect
       x="117.06405"
       y="45.703091"
       width="15.768902"
       height="13.096207"
       id="rect1827" />
    <rect
       x="117.06405"
       y="45.703091"
       width="15.768902"
       height="13.096207"
       id="rect1829" />
    <rect
       x="117.06405"
       y="45.703091"
       width="15.768902"
       height="13.096207"
       id="rect1831" />
    <rect
       x="117.06405"
       y="45.703091"
       width="15.768902"
       height="13.096207"
       id="rect1833" />
    <rect
       x="117.06405"
       y="45.703091"
       width="15.768902"
       height="13.096207"
       id="rect1835" />
    <rect
       x="117.06405"
       y="45.703091"
       width="15.768902"
       height="13.096207"
       id="rect1837" />
    <rect
       x="117.06405"
       y="45.703091"
       width="15.768902"
       height="13.096207"
       id="rect1839" />
    <rect
       x="117.06405"
       y="45.703091"
       width="15.768902"
       height="13.096207"
       id="rect1841" />
    <rect
       x="117.06405"
       y="45.703091"
       width="15.768902"
       height="13.096207"
       id="rect1843" />
    <rect
       x="117.06405"
       y="45.703091"
       width="15.768902"
       height="13.096207"
       id="rect1845" />
    <rect
       x="117.06405"
       y="45.703091"
       width="15.768902"
       height="13.096207"
       id="rect1847" />
    <rect
       x="117.06405"
       y="45.703091"
       width="15.768902"
       height="13.096207"
       id="rect1849" />
    <rect
       x="117.06405"
       y="45.703091"
       width="15.768902"
       height="13.096207"
       id="rect1851" />
    <rect
       x="117.06405"
       y="45.703091"
       width="15.768902"
       height="13.096207"
       id="rect1853" />
    <rect
       x="117.06405"
       y="45.703091"
       width="15.768902"
       height="13.096207"
       id="rect1855" />
    <rect
       x="117.06405"
       y="45.703091"
       width="15.768902"
       height="13.096207"
       id="rect1857" />
    <rect
       x="117.06405"
       y="45.703091"
       width="15.768902"
       height="13.096207"
       id="rect1859" />
    <rect
       x="117.06405"
       y="45.703091"
       width="15.768902"
       height="13.096207"
       id="rect1861" />
    <rect
       x="117.06405"
       y="45.703091"
       width="15.768902"
       height="13.096207"
       id="rect1863" />
    <rect
       x="117.06405"
       y="45.703091"
       width="15.768902"
       height="13.096207"
       id="rect3263-3-5-6" />
    <rect
       x="117.06405"
       y="45.703091"
       width="15.768902"
       height="13.096207"
       id="rect2364" />
    <rect
       x="117.06405"
       y="45.703091"
       width="15.768902"
       height="13.096207"
       id="rect2366" />
    <rect
       x="117.06405"
       y="45.703091"
       width="15.768902"
       height="13.096207"
       id="rect2368" />
    <rect
       x="117.06405"
       y="45.703091"
       width="15.768902"
       height="13.096207"
       id="rect2370" />
    <rect
       x="117.06405"
       y="45.703091"
       width="15.768902"
       height="13.096207"
       id="rect2372" />
    <rect
       x="117.06405"
       y="45.703091"
       width="15.768902"
       height="13.096207"
       id="rect2374" />
    <rect
       x="117.06405"
       y="45.703091"
       width="15.768902"
       height="13.096207"
       id="rect2376" />
    <rect
       x="117.06405"
       y="45.703091"
       width="15.768902"
       height="13.096207"
       id="rect2378" />
    <rect
       x="117.06405"
       y="45.703091"
       width="15.768902"
       height="13.096207"
       id="rect2380" />
    <rect
       x="117.06405"
       y="45.703091"
       width="15.768902"
       height="13.096207"
       id="rect2382" />
    <rect
       x="117.06405"
       y="45.703091"
       width="15.768902"
       height="13.096207"
       id="rect2384" />
    <rect
       x="117.06405"
       y="45.703091"
       width="15.768902"
       height="13.096207"
       id="rect2386" />
    <rect
       x="117.06405"
       y="45.703091"
       width="15.768902"
       height="13.096207"
       id="rect2388" />
    <rect
       x="117.06405"
       y="45.703091"
       width="15.768902"
       height="13.096207"
       id="rect2390" />
    <rect
       x="117.06405"
       y="45.703091"
       width="15.768902"
       height="13.096207"
       id="rect2392" />
    <rect
       x="117.06405"
       y="45.703091"
       width="15.768902"
       height="13.096207"
       id="rect2394" />
    <rect
       x="117.06405"
       y="45.703091"
       width="15.768902"
       height="13.096207"
       id="rect2396" />
    <rect
       x="117.06405"
       y="45.703091"
       width="15.768902"
       height="13.096207"
       id="rect2398" />
    <rect
       x="117.06405"
       y="45.703091"
       width="15.768902"
       height="13.096207"
       id="rect2400" />
    <rect
       x="117.06405"
       y="45.703091"
       width="15.768902"
       height="13.096207"
       id="rect2402" />
    <rect
       x="117.06405"
       y="45.703091"
       width="15.768902"
       height="13.096207"
       id="rect2404" />
    <rect
       x="117.06405"
       y="45.703091"
       width="15.768902"
       height="13.096207"
       id="rect2406" />
    <rect
       x="117.06405"
       y="45.703091"
       width="15.768902"
       height="13.096207"
       id="rect2408" />
    <rect
       x="117.06405"
       y="45.703091"
       width="15.768902"
       height="13.096207"
       id="rect2410" />
    <rect
       x="117.06405"
       y="45.703091"
       width="15.768902"
       height="13.096207"
       id="rect2412" />
    <rect
       x="117.06405"
       y="45.703091"
       width="15.768902"
       height="13.096207"
       id="rect2414" />
    <rect
       x="117.06405"
       y="45.703091"
       width="15.768902"
       height="13.096207"
       id="rect2416" />
    <rect
       x="117.06405"
       y="45.703091"
       width="15.768902"
       height="13.096207"
       id="rect2418" />
    <rect
       x="117.06405"
       y="45.703091"
       width="15.768902"
       height="13.096207"
       id="rect2420" />
    <rect
       x="117.06405"
       y="45.703091"
       width="15.768902"
       height="13.096207"
       id="rect2422" />
    <rect
       x="117.06405"
       y="45.703091"
       width="15.768902"
       height="13.096207"
       id="rect2424" />
    <rect
       x="117.06405"
       y="45.703091"
       width="15.768902"
       height="13.096207"
       id="rect2426" />
    <rect
       x="117.06405"
       y="45.703091"
       width="15.768902"
       height="13.096207"
       id="rect2428" />
    <rect
       x="117.06405"
       y="45.703091"
       width="15.768902"
       height="13.096207"
       id="rect2430" />
    <rect
       x="117.06405"
       y="45.703091"
       width="15.768902"
       height="13.096207"
       id="rect2432" />
    <rect
       x="117.06405"
       y="45.703091"
       width="15.768902"
       height="13.096207"
       id="rect2434" />
    <rect
       x="117.06405"
       y="45.703091"
       width="15.768902"
       height="13.096207"
       id="rect2436" />
    <rect
       x="117.06405"
       y="45.703091"
       width="15.768902"
       height="13.096207"
       id="rect2438" />
    <rect
       x="117.06405"
       y="45.703091"
       width="15.768902"
       height="13.096207"
       id="rect2440" />
    <rect
       x="117.06405"
       y="45.703091"
       width="15.768902"
       height="13.096207"
       id="rect2442" />
    <rect
       x="117.06405"
       y="45.703091"
       width="15.768902"
       height="13.096207"
       id="rect2444" />
    <rect
       x="117.06405"
       y="45.703091"
       width="15.768902"
       height="13.096207"
       id="rect2446" />
    <rect
       x="117.06405"
       y="45.703091"
       width="15.768902"
       height="13.096207"
       id="rect2448" />
    <rect
       x="117.06405"
       y="45.703091"
       width="15.768902"
       height="13.096207"
       id="rect2450" />
    <rect
       x="117.06405"
       y="45.703091"
       width="15.768902"
       height="13.096207"
       id="rect2452" />
    <rect
       x="117.06405"
       y="45.703091"
       width="15.768902"
       height="13.096207"
       id="rect2454" />
    <rect
       x="117.06405"
       y="45.703091"
       width="15.768902"
       height="13.096207"
       id="rect2456" />
    <rect
       x="117.06405"
       y="45.703091"
       width="15.768902"
       height="13.096207"
       id="rect2458" />
    <rect
       x="117.06405"
       y="45.703091"
       width="15.768902"
       height="13.096207"
       id="rect2460" />
    <rect
       x="117.06405"
       y="45.703091"
       width="15.768902"
       height="13.096207"
       id="rect2462" />
    <rect
       x="117.06405"
       y="45.703091"
       width="15.768902"
       height="13.096207"
       id="rect2464" />
    <rect
       x="117.06405"
       y="45.703091"
       width="15.768902"
       height="13.096207"
       id="rect3263-9" />
    <rect
       x="117.06405"
       y="45.703091"
       width="15.768902"
       height="13.096207"
       id="rect2365" />
    <rect
       x="117.06405"
       y="45.703091"
       width="15.768902"
       height="13.096207"
       id="rect2367" />
    <rect
       x="117.06405"
       y="45.703091"
       width="15.768902"
       height="13.096207"
       id="rect2369" />
    <rect
       x="117.06405"
       y="45.703091"
       width="15.768902"
       height="13.096207"
       id="rect2371" />
    <rect
       x="117.06405"
       y="45.703091"
       width="15.768902"
       height="13.096207"
       id="rect2373" />
    <rect
       x="117.06405"
       y="45.703091"
       width="15.768902"
       height="13.096207"
       id="rect2375" />
    <rect
       x="117.06405"
       y="45.703091"
       width="15.768902"
       height="13.096207"
       id="rect2377" />
    <rect
       x="117.06405"
       y="45.703091"
       width="15.768902"
       height="13.096207"
       id="rect2379" />
    <rect
       x="117.06405"
       y="45.703091"
       width="15.768902"
       height="13.096207"
       id="rect2381" />
    <rect
       x="117.06405"
       y="45.703091"
       width="15.768902"
       height="13.096207"
       id="rect2383" />
    <rect
       x="117.06405"
       y="45.703091"
       width="15.768902"
       height="13.096207"
       id="rect2385" />
    <rect
       x="117.06405"
       y="45.703091"
       width="15.768902"
       height="13.096207"
       id="rect2387" />
    <rect
       x="117.06405"
       y="45.703091"
       width="15.768902"
       height="13.096207"
       id="rect2389" />
    <rect
       x="117.06405"
       y="45.703091"
       width="15.768902"
       height="13.096207"
       id="rect2391" />
    <rect
       x="117.06405"
       y="45.703091"
       width="15.768902"
       height="13.096207"
       id="rect2393" />
    <rect
       x="117.06405"
       y="45.703091"
       width="15.768902"
       height="13.096207"
       id="rect2395" />
    <rect
       x="117.06405"
       y="45.703091"
       width="15.768902"
       height="13.096207"
       id="rect2397" />
    <rect
       x="117.06405"
       y="45.703091"
       width="15.768902"
       height="13.096207"
       id="rect2399" />
    <rect
       x="117.06405"
       y="45.703091"
       width="15.768902"
       height="13.096207"
       id="rect2401" />
    <rect
       x="117.06405"
       y="45.703091"
       width="15.768902"
       height="13.096207"
       id="rect2403" />
    <rect
       x="117.06405"
       y="45.703091"
       width="15.768902"
       height="13.096207"
       id="rect2405" />
    <rect
       x="117.06405"
       y="45.703091"
       width="15.768902"
       height="13.096207"
       id="rect2407" />
    <rect
       x="117.06405"
       y="45.703091"
       width="15.768902"
       height="13.096207"
       id="rect2409" />
    <rect
       x="117.06405"
       y="45.703091"
       width="15.768902"
       height="13.096207"
       id="rect2411" />
    <rect
       x="117.06405"
       y="45.703091"
       width="15.768902"
       height="13.096207"
       id="rect2413" />
    <rect
       x="117.06405"
       y="45.703091"
       width="15.768902"
       height="13.096207"
       id="rect2415" />
    <rect
       x="117.06405"
       y="45.703091"
       width="15.768902"
       height="13.096207"
       id="rect2417" />
    <rect
       x="117.06405"
       y="45.703091"
       width="15.768902"
       height="13.096207"
       id="rect2419" />
    <rect
       x="117.06405"
       y="45.703091"
       width="15.768902"
       height="13.096207"
       id="rect2421" />
    <rect
       x="117.06405"
       y="45.703091"
       width="15.768902"
       height="13.096207"
       id="rect2423" />
    <rect
       x="117.06405"
       y="45.703091"
       width="15.768902"
       height="13.096207"
       id="rect2425" />
    <rect
       x="117.06405"
       y="45.703091"
       width="15.768902"
       height="13.096207"
       id="rect2427" />
    <rect
       x="117.06405"
       y="45.703091"
       width="15.768902"
       height="13.096207"
       id="rect2429" />
    <rect
       x="117.06405"
       y="45.703091"
       width="15.768902"
       height="13.096207"
       id="rect2431" />
    <rect
       x="117.06405"
       y="45.703091"
       width="15.768902"
       height="13.096207"
       id="rect2433" />
    <rect
       x="117.06405"
       y="45.703091"
       width="15.768902"
       height="13.096207"
       id="rect2435" />
    <rect
       x="117.06405"
       y="45.703091"
       width="15.768902"
       height="13.096207"
       id="rect2437" />
    <rect
       x="117.06405"
       y="45.703091"
       width="15.768902"
       height="13.096207"
       id="rect2439" />
    <rect
       x="117.06405"
       y="45.703091"
       width="15.768902"
       height="13.096207"
       id="rect2441" />
    <rect
       x="117.06405"
       y="45.703091"
       width="15.768902"
       height="13.096207"
       id="rect2443" />
    <rect
       x="117.06405"
       y="45.703091"
       width="15.768902"
       height="13.096207"
       id="rect2445" />
    <rect
       x="117.06405"
       y="45.703091"
       width="15.768902"
       height="13.096207"
       id="rect2447" />
    <rect
       x="117.06405"
       y="45.703091"
       width="15.768902"
       height="13.096207"
       id="rect2449" />
    <rect
       x="117.06405"
       y="45.703091"
       width="15.768902"
       height="13.096207"
       id="rect2451" />
    <rect
       x="117.06405"
       y="45.703091"
       width="15.768902"
       height="13.096207"
       id="rect2453" />
    <rect
       x="117.06405"
       y="45.703091"
       width="15.768902"
       height="13.096207"
       id="rect2455" />
    <rect
       x="117.06405"
       y="45.703091"
       width="15.768902"
       height="13.096207"
       id="rect2457" />
    <rect
       x="117.06405"
       y="45.703091"
       width="15.768902"
       height="13.096207"
       id="rect2459" />
    <rect
       x="117.06405"
       y="45.703091"
       width="15.768902"
       height="13.096207"
       id="rect2461" />
    <rect
       x="117.06405"
       y="45.703091"
       width="15.768902"
       height="13.096207"
       id="rect2463" />
    <rect
       x="117.06405"
       y="45.703091"
       width="15.768902"
       height="13.096207"
       id="rect2465" />
  </defs>
  <sodipodi:namedview
     id="base"
     pagecolor="#ffffff"
     bordercolor="#666666"
     borderopacity="1.0"
     inkscape:pageopacity="0.0"
     inkscape:pageshadow="2"
     inkscape:zoom="1.979899"
     inkscape:cx="260.02391"
     inkscape:cy="230.77246"
     inkscape:document-units="mm"
     inkscape:current-layer="layer2"
     inkscape:document-rotation="0"
     showgrid="false"
     inkscape:window-width="2560"
     inkscape:window-height="1417"
     inkscape:window-x="1912"
     inkscape:window-y="-8"
     inkscape:window-maximized="1"
     inkscape:snap-object-midpoints="true"
     inkscape:snap-center="true"
     inkscape:snap-others="true"
     inkscape:snap-text-baseline="true"
     fit-margin-top="0"
     fit-margin-left="0"
     fit-margin-right="0"
     fit-margin-bottom="0" />
  <metadata
     id="metadata5">
    <rdf:RDF>
      <cc:Work
         rdf:about="">
        <dc:format>image/svg+xml</dc:format>
        <dc:type
           rdf:resource="http://purl.org/dc/dcmitype/StillImage" />
        <dc:title></dc:title>
      </cc:Work>
    </rdf:RDF>
  </metadata>
  <g
     inkscape:groupmode="layer"
     id="layer2"
     inkscape:label="Symbols"
     style="display:inline"
     transform="translate(-41.400183,-71.118869)">
    <g
       id="g1974"
       style="display:inline;stroke-width:0.69552;stroke-miterlimit:4;stroke-dasharray:none"
       transform="matrix(0.65849965,0,0,0.65849965,12.116254,41.576176)">
      <circle
         style="opacity:1;fill:none;fill-opacity:1;fill-rule:nonzero;stroke:#000000;stroke-width:0.69552;stroke-linecap:butt;stroke-linejoin:round;stroke-miterlimit:4;stroke-dasharray:none;stroke-dashoffset:0;stroke-opacity:1;paint-order:normal"
         id="path1081-7-3-5-9"
         cx="119.81844"
         cy="120.2114"
         inkscape:transform-center-x="-0.74026864"
         inkscape:transform-center-y="-0.46553683"
         r="75" />
      <g
         id="g1894"
         transform="translate(0.65467837,-0.39121459)"
         style="stroke-width:0.69552;stroke-miterlimit:4;stroke-dasharray:none" />
    </g>
  </g>
</svg>
